<?xml version="1.0" encoding="UTF-8" standalone="no" ?>
<COLLADA version="1.4.1" xmlns="http://www.collada.org/2005/11/COLLADASchema">

  <asset>
    <contributor>
      <authoring_tool>ONSHAPE BY PTC INC, 1.210</authoring_tool>
    </contributor>
    <created>2026-02-04T15:33:28</created>
    <modified>2026-02-04T15:33:28</modified>
    <unit meter="1" name="meters"/>
    <up_axis>Z_UP</up_axis>
  </asset>

  <library_materials>
    <material id="ID9" name="ID9">
      <instance_effect url="#ID9-fx"/>
    </material>
  </library_materials>

  <library_effects>
    <effect id="ID9-fx" name="ID9">
      <profile_COMMON>
        <technique sid="COMMON">
          <lambert>
            <diffuse>
              <color sid="diffuse">0.615686 0.811765 0.92549 1</color>
            </diffuse>
            <transparent opaque="A_ONE">
              <color sid="transparent">1 1 1 1</color>
            </transparent>
            <transparency>
              <float sid="transparency">1</float>
            </transparency>
          </lambert>
        </technique>
        <extra>
          <technique profile="OTHER">
            <double_sided>1</double_sided>
          </technique>
        </extra>
      </profile_COMMON>
    </effect>
  </library_effects>

  <library_geometries>
    <geometry id="ID3">
      <mesh>
        <source id="ID4">
          <float_array count="1782" id="ID5">0.03 -0.0404285 0.0747698 0.03 -0.0359787 0.0770099 0 -0.0404285 0.0747698 0 -0.0447467 0.0722685 0.03 -0.0447467 0.0722685 0 -0.0359787 0.0770099 0.03 -0.0313973 0.0789887 0 -0.0313973 0.0789887 0.03 -0.0447467 0.0722685 -1.06581e-17 -0.0394824 0.0637663 0.03 -0.0394824 0.0637663 0 -0.0447467 0.0722685 0.03 -0.0394824 0.0637663 0 -0.0562037 0.0637663 0.03 -0.0562037 0.0637663 -1.06581e-17 -0.0394824 0.0637663 0.03 -0.0642367 0.0556653 0.03 -0.0603608 0.0598461 0 -0.0642367 0.0556653 0 -0.0678315 0.0512239 0.03 -0.0678315 0.0512239 0 -0.0603608 0.0598461 0.03 -0.0562037 0.0637663 0 -0.0562037 0.0637663 0.03 -0.0678315 0.0512239 1.42109e-17 -0.0598513 0.0451976 0.03 -0.0598513 0.0451976 0 -0.0678315 0.0512239 1.42109e-17 -0.0598513 0.0451976 0.03 -0.0760082 0.0380494 0.03 -0.0598513 0.0451976 3.55271e-18 -0.0760082 0.0380494 0.03 -0.0801469 0.0283101 0.03 -0.0782312 0.0332395 0 -0.0801469 0.0283101 0 -0.0817552 0.0232614 0.03 -0.0817552 0.0232614 0 -0.0782312 0.0332395 0.03 -0.0760082 0.0380494 3.55271e-18 -0.0760082 0.0380494 0.03 -0.0817552 0.0232614 -1.77636e-17 -0.0721369 0.0205247 0.03 -0.0721369 0.0205247 0 -0.0817552 0.0232614 -1.77636e-17 -0.0721369 0.0205247 0.03 -0.0846205 0.00802266 0.03 -0.0721369 0.0205247 0 -0.0846205 0.00802266 0.03 -0.0849615 -0.00255397 0.03 -0.0849559 0.00273452 0 -0.0849615 -0.00255397 0 -0.0846374 -0.00784281 0.03 -0.0846374 -0.00784281 0 -0.0849559 0.00273452 0.03 -0.0846205 0.00802266 0 -0.0846205 0.00802266 0.03 -0.0846374 -0.00784281 0 -0.0746801 -0.00692013 0.03 -0.0746801 -0.00692013 0 -0.0846374 -0.00784281 0 -0.0746801 -0.00692013 0.03 -0.0818044 -0.0230876 0.03 -0.0746801 -0.00692013 0 -0.0818044 -0.0230876 0.03 -0.0783017 -0.0330732 0.03 -0.0802069 -0.0281398 0 -0.0783017 -0.0330732 0 -0.0760889 -0.0378878 0.03 -0.0760889 -0.0378878 0 -0.0802069 -0.0281398 0.03 -0.0818044 -0.0230876 0 -0.0818044 -0.0230876 0.03 -0.0760889 -0.0378878 -1.06581e-17 -0.0671372 -0.0334304 0.03 -0.0671372 -0.0334304 0 -0.0760889 -0.0378878 -1.06581e-17 -0.0671372 -0.0334304 0.03 -0.0679402 -0.0510797 0.03 -0.0671372 -0.0334304 7.10543e-18 -0.0679402 -0.0510797 0.03 -0.0610667 -0.0591256 0.03 -0.0646254 -0.0552136 0 -0.0610667 -0.0591256 0 -0.0572641 -0.0628158 0.03 -0.0572641 -0.0628158 0 -0.0646254 -0.0552136 0.03 -0.0679402 -0.0510797 7.10543e-18 -0.0679402 -0.0510797 0.03 -0.0572641 -0.0628158 -1.42109e-17 -0.0505272 -0.0554257 0.03 -0.0505272 -0.0554257 0 -0.0572641 -0.0628158 -1.42109e-17 -0.0505272 -0.0554257 0.03 -0.0449002 -0.0721732 0.03 -0.0505272 -0.0554257 1.77636e-17 -0.0449002 -0.0721732 0.03 -0.0355844 -0.0771929 0.03 -0.040316 -0.0748305 0 -0.0355844 -0.0771929 0 -0.0307055 -0.0792601 0.03 -0.0307055 -0.0792601 0 -0.040316 -0.0748305 0.03 -0.0449002 -0.0721732 1.77636e-17 -0.0449002 -0.0721732 0.03 -0.0307055 -0.0792601 7.10543e-18 -0.0270931 -0.0699354 0.03 -0.0270931 -0.0699354 0 -0.0307055 -0.0792601 7.10543e-18 -0.0270931 -0.0699354 0.03 -0.0157962 -0.0835193 0.03 -0.0270931 -0.0699354 -7.10543e-18 -0.0157962 -0.0835193 0.03 -0.00529619 -0.0848348 0.03 -0.0105616 -0.0843412 0 -0.00529619 -0.0848348 0 -3.01981e-17 -0.085 0.03 -2.56684e-16 -0.085 0 -0.0105616 -0.0843412 0.03 -0.0157962 -0.0835193 -7.10543e-18 -0.0157962 -0.0835193 0.03 -2.56684e-16 -0.085 0 4.63893e-18 -0.075 0.03 4.63893e-18 -0.075 0 -3.01981e-17 -0.085 0 4.63893e-18 -0.075 0.03 0.0154411 -0.0835857 0.03 4.63893e-18 -0.075 -1.42109e-17 0.0154411 -0.0835857 0.03 0.0257073 -0.0810193 0.03 0.0206192 -0.0824611 0 0.0257073 -0.0810193 0 0.0307055 -0.0792601 0.03 0.0307055 -0.0792601 0 0.0206192 -0.0824611 0.03 0.0154411 -0.0835857 -1.42109e-17 0.0154411 -0.0835857 0.03 0.0307055 -0.0792601 7.10543e-18 0.0270931 -0.0699354 0.03 0.0270931 -0.0699354 0 0.0307055 -0.0792601 7.10543e-18 0.0270931 -0.0699354 0.03 0.0445931 -0.0723634 0.03 0.0270931 -0.0699354 -1.06581e-17 0.0445931 -0.0723634 0.03 0.0532389 -0.0662617 0.03 0.0490152 -0.0694442 0 0.0532389 -0.0662617 0 0.0572641 -0.0628158 0.03 0.0572641 -0.0628158 0 0.0490152 -0.0694442 0.03 0.0445931 -0.0723634 -1.06581e-17 0.0445931 -0.0723634 0.03 0.0572641 -0.0628158 1.42109e-17 0.0505272 -0.0554257 0.03 0.0505272 -0.0554257 0 0.0572641 -0.0628158 1.42109e-17 0.0505272 -0.0554257 0.03 0.0677224 -0.051368 0.03 0.0505272 -0.0554257 0 0.0677224 -0.051368 0.03 0.0735803 -0.0425551 0.03 0.0707914 -0.0470485 0 0.0735803 -0.0425551 0 0.0760889 -0.0378878 0.03 0.0760889 -0.0378878 0 0.0707914 -0.0470485 0.03 0.0677224 -0.051368 0 0.0677224 -0.051368 0.03 0.0760889 -0.0378878 -1.06581e-17 0.0671372 -0.0334304 0.03 0.0671372 -0.0334304 0 0.0760889 -0.0378878 -1.06581e-17 0.0671372 -0.0334304 0.03 0.0817056 -0.023435 0.03 0.0671372 -0.0334304 -1.06581e-17 0.0817056 -0.023435 0.03 0.0839842 -0.0131012 0.03 0.0830069 -0.0182986 0 0.0839842 -0.0131012 0 0.0846374 -0.00784281 0.03 0.0846374 -0.00784281 0 0.0830069 -0.0182986 0.03 0.0817056 -0.023435 -1.06581e-17 0.0817056 -0.023435 0.03 0.0846374 -0.00784281 -7.10543e-18 0.0746801 -0.00692013 0.03 0.0746801 -0.00692013 0 0.0846374 -0.00784281 -7.10543e-18 0.0746801 -0.00692013 0.03 0.0846539 0.00766293 0.03 0.0746801 -0.00692013 3.55271e-18 0.0846539 0.00766293 0.03 0.0830456 0.0181221 0.03 0.0840119 0.0129226 0 0.0830456 0.0181221 0 0.0817552 0.0232614 0.03 0.0817552 0.0232614 0 0.0840119 0.0129226 0.03 0.0846539 0.00766293 3.55271e-18 0.0846539 0.00766293 0.03 0.0817552 0.0232614 3.55271e-18 0.0721369 0.0205247 0.03 0.0721369 0.0205247 0 0.0817552 0.0232614 3.55271e-18 0.0721369 0.0205247 0.03 0.0769371 0.0361342 0.03 0.0721369 0.0205247 7.10543e-18 0.0769371 0.0361342 0.03 0.0712153 0.0464044 0.03 0.0742505 0.0413745 0 0.0712153 0.0464044 0 0.0678315 0.0512239 0.03 0.0678315 0.0512239 0 0.0742505 0.0413745 0.03 0.0769371 0.0361342 7.10543e-18 0.0769371 0.0361342 0.03 0.0678315 0.0512239 1.42109e-17 0.0598513 0.0451976 0.03 0.0598513 0.0451976 0 0.0678315 0.0512239 1.42109e-17 0.0598513 0.0451976 0.03 0.0598513 0.0603558 0.03 0.0598513 0.0451976 0 0.0598513 0.0603558 0.03 0.0500821 0.0686786 0.03 0.055117 0.0647077 0 0.0500821 0.0686786 0 0.0447467 0.0722685 0.03 0.0447467 0.0722685 0 0.055117 0.0647077 0.03 0.0598513 0.0603558 0 0.0598513 0.0603558 0.03 0.0447467 0.0722685 1.42109e-17 0.0394824 0.0637663 0.03 0.0394824 0.0637663 0 0.0447467 0.0722685 1.42109e-17 0.0394824 0.0637663 0.03 0.0308739 0.0791947 0.03 0.0394824 0.0637663 -1.42109e-17 0.0308739 0.0791947 0.03 0.0207944 0.0824171 0.03 0.0258794 0.0809644 0 0.0207944 0.0824171 0 0.0156187 0.0835527 0.03 0.0156187 0.0835527 0 0.0258794 0.0809644 0.03 0.0308739 0.0791947 -1.42109e-17 0.0308739 0.0791947 0.03 0.0156187 0.0835527 -2.13163e-17 0.0137812 0.073723 0.03 0.0137812 0.073723 0 0.0156187 0.0835527 -2.13163e-17 0.0137812 0.073723 0.03 7.10543e-18 0.085 0.03 0.0137812 0.073723 -7.10543e-18 7.10543e-18 0.085 0.03 -0.0104422 0.0843561 0.03 -0.00523597 0.0848385 0 -0.0104422 0.0843561 3.55271e-18 -0.0156187 0.0835527 0.03 -0.0156187 0.0835527 0 -0.00523597 0.0848385 0.03 7.10543e-18 0.085 -7.10543e-18 7.10543e-18 0.085 0.03 -0.0156187 0.0835527 1.06581e-17 -0.0137812 0.073723 0.03 -0.0137812 0.073723 3.55271e-18 -0.0156187 0.0835527 1.06581e-17 -0.0137812 0.073723 0.03 -0.0313973 0.0789887 0.03 -0.0137812 0.073723 0 -0.0313973 0.0789887 0 -0.00996585 -0.000825793 0 -0.00996585 0.000825793 0.03 -0.00996585 0.000825793 0.03 2.1174e-17 -0.01 0 0.00164595 -0.00986361 0 2.1174e-17 -0.01 0 -0.009694 0.00245486 0.03 -0.009694 0.00245486 0.03 -0.00915773 0.00401695 0 -0.00915773 0.00401695 0 -0.00837167 0.00546948 0.03 -0.00837167 0.00546948 0 -0.00735724 0.00677282 0.03 -0.00735724 0.00677282 0.03 -0.00614213 0.00789141 0 -0.00614213 0.00789141 0 -0.00475947 0.00879474 0.03 -0.00475947 0.00879474 0 -0.00324699 0.00945817 0.03 -0.00324699 0.00945817 0.03 -0.00164595 0.00986361 0 -0.00164595 0.00986361 0.03 1.75e-17 0.01 0 1.75e-17 0.01 0.03 -0.00996585 -0.000825793 0 -0.009694 -0.00245486 0.03 -0.009694 -0.00245486 0.03 -0.00915773 -0.00401695 0 -0.00915773 -0.00401695 0.03 -0.00837167 -0.00546948 0 -0.00837167 -0.00546948 0 -0.00735724 -0.00677282 0.03 -0.00735724 -0.00677282 0.03 -0.00614213 -0.00789141 0 -0.00614213 -0.00789141 0.03 -0.00475947 -0.00879474 0 -0.00475947 -0.00879474 0 -0.00324699 -0.00945817 0.03 -0.00324699 -0.00945817 0.03 -0.00164595 -0.00986361 0 -0.00164595 -0.00986361 0.03 0.00324699 -0.00945817 0 0.00324699 -0.00945817 0.03 0.00164595 -0.00986361 0.03 0.00735724 -0.00677282 0 0.00735724 -0.00677282 0.03 0.00614213 -0.00789141 0.03 0.00475947 -0.00879474 0 0.00614213 -0.00789141 0 0.00475947 -0.00879474 0.03 0.00915773 -0.00401695 0.03 0.009694 -0.00245486 0 0.009694 -0.00245486 0 0.00837167 -0.00546948 0.03 0.00837167 -0.00546948 0 0.00915773 -0.00401695 0 0.009694 0.00245486 0.03 0.00996585 0.000825793 0.03 0.009694 0.00245486 0 0.00996585 0.000825793 0 0.00996585 -0.000825793 0.03 0.00996585 -0.000825793 0.03 0.00735724 0.00677282 0 0.00735724 0.00677282 0.03 0.00837167 0.00546948 0.03 0.00915773 0.00401695 0 0.00837167 0.00546948 0 0.00915773 0.00401695 0 0.00475947 0.00879474 0 0.00614213 0.00789141 0.03 0.00614213 0.00789141 0.03 0.00475947 0.00879474 0 0.00324699 0.00945817 0.03 0.00324699 0.00945817 0 0.00164595 0.00986361 0.03 0.00164595 0.00986361 0.03 -0.0359787 0.0770099 0.03 -0.0404285 0.0747698 0.03 -0.0394824 0.0637663 0.03 4.63893e-18 -0.075 0.03 -0.0105616 -0.0843412 0.03 -0.00529619 -0.0848348 0.03 -0.0313973 0.0789887 0.03 -0.0447467 0.0722685 0.03 -0.0562037 0.0637663 0.03 -0.0603608 0.0598461 0.03 -0.0598513 0.0451976 0.03 -0.0802069 -0.0281398 0.03 -0.0671372 -0.0334304 0.03 -0.0818044 -0.0230876 0.03 -0.0642367 0.0556653 0.03 -0.0678315 0.0512239 0.03 -0.0782312 0.0332395 0.03 -0.0721369 0.0205247 0.03 -0.0760082 0.0380494 0.03 -0.0801469 0.0283101 0.03 -0.0817552 0.0232614 0.03 -0.0270931 -0.0699354 0.03 -0.00164595 -0.00986361 0.03 -0.0849559 0.00273452 0.03 -0.0849615 -0.00255397 0.03 -0.0746801 -0.00692013 0.03 -0.0846205 0.00802266 0.03 -0.0846374 -0.00784281 0.03 -0.0783017 -0.0330732 0.03 -0.00324699 -0.00945817 0.03 -0.0760889 -0.0378878 0.03 2.1174e-17 -0.01 0.03 -0.0505272 -0.0554257 0.03 -0.0646254 -0.0552136 0.03 -0.0610667 -0.0591256 0.03 -0.0679402 -0.0510797 0.03 -0.0572641 -0.0628158 0.03 -0.00475947 -0.00879474 0.03 -0.040316 -0.0748305 0.03 -0.0355844 -0.0771929 0.03 -0.0449002 -0.0721732 0.03 -0.0307055 -0.0792601 0.03 0.00164595 -0.00986361 0.03 0.0270931 -0.0699354 0.03 0.00324699 -0.00945817 0.03 -2.56684e-16 -0.085 0.03 -0.0157962 -0.0835193 0.03 0.0154411 -0.0835857 0.03 0.0206192 -0.0824611 0.03 0.0257073 -0.0810193 0.03 0.0307055 -0.0792601 0.03 0.00996585 -0.000825793 0.03 0.0746801 -0.00692013 0.03 0.00996585 0.000825793 0.03 0.0490152 -0.0694442 0.03 0.0505272 -0.0554257 0.03 0.0445931 -0.0723634 0.03 0.0532389 -0.0662617 0.03 0.0572641 -0.0628158 0.03 0.0671372 -0.0334304 0.03 0.0677224 -0.051368 0.03 0.0707914 -0.0470485 0.03 0.0735803 -0.0425551 0.03 -0.009694 -0.00245486 0.03 0.0760889 -0.0378878 0.03 0.0817056 -0.023435 0.03 0.0830069 -0.0182986 0.03 0.0839842 -0.0131012 0.03 0.00837167 0.00546948 0.03 0.00915773 0.00401695 0.03 0.0598513 0.0451976 0.03 0.0846374 -0.00784281 0.03 0.0721369 0.0205247 0.03 0.0846539 0.00766293 0.03 0.0840119 0.0129226 0.03 0.0830456 0.0181221 0.03 -0.00915773 0.00401695 0.03 0.0817552 0.0232614 0.03 0.0742505 0.0413745 0.03 0.0712153 0.0464044 0.03 -0.00324699 0.00945817 0.03 -0.0137812 0.073723 0.03 0.0678315 0.0512239 0.03 0.0769371 0.0361342 0.03 0.0394824 0.0637663 0.03 0.055117 0.0647077 0.03 0.0500821 0.0686786 0.03 -0.00614213 0.00789141 0.03 -0.00735724 0.00677282 0.03 0.0447467 0.0722685 0.03 0.0598513 0.0603558 0.03 0.0137812 0.073723 0.03 0.0308739 0.0791947 0.03 0.0258794 0.0809644 0.03 1.75e-17 0.01 0.03 0.0156187 0.0835527 0.03 0.0207944 0.0824171 0.03 7.10543e-18 0.085 0.03 -0.00523597 0.0848385 0.03 0.00324699 0.00945817 0.03 -0.0156187 0.0835527 0.03 -0.0104422 0.0843561 0.03 -0.00996585 0.000825793 0.03 -0.00837167 -0.00546948 0.03 -0.00735724 -0.00677282 0.03 0.00837167 -0.00546948 0.03 0.00735724 -0.00677282 0.03 0.00614213 0.00789141 0.03 -0.00614213 -0.00789141 0.03 -0.00915773 -0.00401695 0.03 -0.00996585 -0.000825793 0.03 -0.009694 0.00245486 0.03 -0.00837167 0.00546948 0.03 -0.00475947 0.00879474 0.03 -0.00164595 0.00986361 0.03 0.00164595 0.00986361 0.03 0.00475947 0.00879474 0.03 0.00735724 0.00677282 0.03 0.009694 0.00245486 0.03 0.009694 -0.00245486 0.03 0.00915773 -0.00401695 0.03 0.00614213 -0.00789141 0.03 0.00475947 -0.00879474 0 0.0572641 -0.0628158 0 0.0532389 -0.0662617 1.42109e-17 0.0505272 -0.0554257 0 -0.0562037 0.0637663 1.42109e-17 -0.0598513 0.0451976 0 -0.0603608 0.0598461 7.10543e-18 -0.0270931 -0.0699354 1.77636e-17 -0.0449002 -0.0721732 -1.42109e-17 -0.0505272 -0.0554257 0 -0.0642367 0.0556653 0 -0.0678315 0.0512239 0 -0.0782312 0.0332395 3.55271e-18 -0.0760082 0.0380494 -1.77636e-17 -0.0721369 0.0205247 -1.06581e-17 -0.0394824 0.0637663 0 -0.0801469 0.0283101 0 -0.0817552 0.0232614 0 -0.00164595 -0.00986361 0 4.63893e-18 -0.075 0 -0.0849559 0.00273452 0 -0.0746801 -0.00692013 0 -0.0849615 -0.00255397 0 -0.0846205 0.00802266 0 -0.0846374 -0.00784281 0 -0.0818044 -0.0230876 -1.06581e-17 -0.0671372 -0.0334304 0 -0.0802069 -0.0281398 0 -0.00324699 -0.00945817 0 -0.0783017 -0.0330732 0 -0.0760889 -0.0378878 7.10543e-18 -0.0679402 -0.0510797 0 -0.0646254 -0.0552136 0 2.1174e-17 -0.01 0 -0.0610667 -0.0591256 0 -0.0572641 -0.0628158 0 -0.040316 -0.0748305 0 -0.00475947 -0.00879474 0 -0.0355844 -0.0771929 0 -0.0307055 -0.0792601 0 0.00164595 -0.00986361 0 0.00324699 -0.00945817 7.10543e-18 0.0270931 -0.0699354 0 -0.00529619 -0.0848348 0 -0.0105616 -0.0843412 -7.10543e-18 -0.0157962 -0.0835193 0 -3.01981e-17 -0.085 0 0.0206192 -0.0824611 -1.42109e-17 0.0154411 -0.0835857 0 0.0257073 -0.0810193 0 0.0307055 -0.0792601 0 0.00996585 0.000825793 -7.10543e-18 0.0746801 -0.00692013 0 0.00996585 -0.000825793 -1.06581e-17 0.0445931 -0.0723634 0 0.0490152 -0.0694442 -1.06581e-17 0.0671372 -0.0334304 0 0.0707914 -0.0470485 0 0.0677224 -0.051368 0 0.0735803 -0.0425551 0 -0.009694 -0.00245486 0 0.0760889 -0.0378878 0 0.0830069 -0.0182986 -1.06581e-17 0.0817056 -0.023435 0 0.0839842 -0.0131012 0 0.00837167 0.00546948 1.42109e-17 0.0598513 0.0451976 0 0.00915773 0.00401695 0 0.0846374 -0.00784281 3.55271e-18 0.0721369 0.0205247 0 0.0840119 0.0129226 3.55271e-18 0.0846539 0.00766293 0 0.0830456 0.0181221 0 -0.00915773 0.00401695 0 0.0817552 0.0232614 0 0.0742505 0.0413745 7.10543e-18 0.0769371 0.0361342 1.06581e-17 -0.0137812 0.073723 0 -0.00324699 0.00945817 0 0.0678315 0.0512239 0 0.0712153 0.0464044 0 0.055117 0.0647077 0 0.0598513 0.0603558 0 -0.00614213 0.00789141 0 -0.00735724 0.00677282 0 0.0447467 0.0722685 0 0.0500821 0.0686786 1.42109e-17 0.0394824 0.0637663 -2.13163e-17 0.0137812 0.073723 0 0.0258794 0.0809644 -1.42109e-17 0.0308739 0.0791947 0 1.75e-17 0.01 0 0.0156187 0.0835527 0 0.0207944 0.0824171 0 -0.00523597 0.0848385 -7.10543e-18 7.10543e-18 0.085 0 0.00324699 0.00945817 3.55271e-18 -0.0156187 0.0835527 0 -0.0104422 0.0843561 0 -0.0313973 0.0789887 0 -0.00996585 0.000825793 0 -0.0404285 0.0747698 0 -0.0359787 0.0770099 0 -0.0447467 0.0722685 0 -0.00837167 -0.00546948 0 -0.00735724 -0.00677282 0 0.00837167 -0.00546948 0 0.00735724 -0.00677282 0 0.00614213 0.00789141 0 -0.00614213 -0.00789141 0 -0.00915773 -0.00401695 0 -0.00996585 -0.000825793 0 -0.009694 0.00245486 0 -0.00837167 0.00546948 0 -0.00475947 0.00879474 0 -0.00164595 0.00986361 0 0.00164595 0.00986361 0 0.00475947 0.00879474 0 0.00735724 0.00677282 0 0.009694 0.00245486 0 0.009694 -0.00245486 0 0.00915773 -0.00401695 0 0.00614213 -0.00789141 0 0.00475947 -0.00879474</float_array>
          <technique_common>
            <accessor count="594" source="#ID5" stride="3">
              <param name="X" type="float"/>
              <param name="Y" type="float"/>
              <param name="Z" type="float"/>
            </accessor>
          </technique_common>
        </source>
        <source id="ID6">
          <float_array count="1782" id="ID7">0 -0.475659 0.87963 0 -0.423248 0.906014 0 -0.475659 0.87963 0 -0.526432 0.850217 0 -0.526432 0.850217 0 -0.423248 0.906014 0 -0.36938 0.929278 0 -0.36938 0.929278 0 -0.850217 -0.526432 0 -0.850217 -0.526432 0 -0.850217 -0.526432 0 -0.850217 -0.526432 0 0 1 0 0 1 0 0 1 0 0 1 0 -0.75576 0.654849 0 -0.710092 0.704109 0 -0.75576 0.654849 0 -0.798017 0.602635 0 -0.798017 0.602635 0 -0.710092 0.704109 0 -0.66122 0.750192 0 -0.661221 0.750192 0 -0.602635 -0.798017 0 -0.602635 -0.798017 0 -0.602635 -0.798017 0 -0.602635 -0.798017 0 -0.404596 0.914496 0 -0.404596 0.914496 0 -0.404596 0.914496 0 -0.404596 0.914496 0 -0.942919 0.333023 0 -0.920352 0.39109 0 -0.942919 0.333023 0 -0.961826 0.273663 0 -0.961826 0.273663 0 -0.920352 0.39109 0 -0.894214 0.44764 0 -0.894214 0.44764 0 -0.273663 -0.961826 0 -0.273663 -0.961826 0 -0.273663 -0.961826 0 -0.273663 -0.961826 0 -0.707628 0.706585 0 -0.707628 0.706585 0 -0.707628 0.706585 0 -0.707628 0.706585 -0 -0.999547 -0.0300869 0 -0.999481 0.0322113 -0 -0.999547 -0.0300869 -0 -0.995734 -0.0922684 -0 -0.995734 -0.0922684 0 -0.999481 0.032211 0 -0.995536 0.0943842 0 -0.995536 0.0943842 0 0.0922684 -0.995734 0 0.0922684 -0.995734 0 0.0922684 -0.995734 0 0.0922684 -0.995734 0 -0.915092 0.403246 0 -0.915092 0.403246 0 -0.915092 0.403246 0 -0.915092 0.403246 0 -0.921181 -0.389133 -0 -0.943624 -0.331018 0 -0.921181 -0.389133 0 -0.895163 -0.445738 0 -0.895163 -0.445738 -0 -0.943624 -0.331018 -0 -0.962405 -0.271618 -0 -0.962405 -0.271618 0 0.445738 -0.895163 0 0.445738 -0.895163 0 0.445738 -0.895163 0 0.445738 -0.895163 0 -0.998967 0.0454462 0 -0.998967 0.0454462 0 -0.998967 0.0454462 0 -0.998967 0.0454462 0 -0.718405 -0.695625 -0 -0.760326 -0.649542 0 -0.718405 -0.695625 0 -0.673696 -0.739009 0 -0.673696 -0.739009 -0 -0.760326 -0.649542 -0 -0.799296 -0.600937 -0 -0.799296 -0.600937 0 0.739009 -0.673696 0 0.739009 -0.673696 0 0.739009 -0.673696 0 0.739009 -0.673696 -0 -0.947926 -0.318491 -0 -0.947926 -0.318491 -0 -0.947926 -0.318491 -0 -0.947926 -0.318491 0 -0.418604 -0.908169 -0 -0.474341 -0.880341 0 -0.418604 -0.908169 0 -0.361242 -0.932472 0 -0.361242 -0.932472 -0 -0.474341 -0.880341 -0 -0.528238 -0.849096 -0 -0.528238 -0.849096 0 0.932472 -0.361242 0 0.932472 -0.361242 0 0.932472 -0.361242 0 0.932472 -0.361242 -0 -0.768862 -0.639414 -0 -0.768862 -0.639414 -0 -0.768862 -0.639414 -0 -0.768862 -0.639414 0 -0.062268 -0.998059 -0 -0.124294 -0.992245 0 -0.062268 -0.998059 0 1.86324e-08 -1 0 1.86324e-08 -1 -0 -0.124294 -0.992245 -0 -0.185838 -0.98258 -0 -0.185838 -0.98258 0 1 1.38778e-16 0 1 1.38778e-16 0 1 1.38778e-16 0 1 1.38778e-16 -0 -0.48596 -0.873981 -0 -0.48596 -0.873981 -0 -0.48596 -0.873981 -0 -0.48596 -0.873981 0 0.302478 -0.953157 0 0.24254 -0.970142 0 0.302478 -0.953157 0 0.361242 -0.932472 0 0.361242 -0.932472 0 0.24254 -0.970142 0 0.18166 -0.983361 0 0.18166 -0.983361 0 0.932472 0.361242 0 0.932472 0.361242 0 0.932472 0.361242 0 0.932472 0.361242 -0 -0.137425 -0.990512 -0 -0.137425 -0.990512 -0 -0.137425 -0.990512 -0 -0.137425 -0.990512 0 0.626372 -0.779525 0 0.576617 -0.817015 0 0.626372 -0.779525 0 0.673696 -0.739009 0 0.673696 -0.739009 0 0.576617 -0.817015 0 0.524624 -0.851334 0 0.524624 -0.851334 0 0.739009 0.673696 0 0.739009 0.673696 0 0.739009 0.673696 0 0.739009 0.673696 0 0.229669 -0.973269 0 0.229669 -0.973269 0 0.229669 -0.973269 0 0.229669 -0.973269 0 0.865671 -0.500613 0 0.832819 -0.553546 0 0.865671 -0.500613 0 0.895163 -0.445738 0 0.895163 -0.445738 0 0.832819 -0.553546 0 0.796735 -0.604329 0 0.796735 -0.604329 0 0.445738 0.895163 0 0.445738 0.895163 0 0.445738 0.895163 0 0.445738 0.895163 0 0.565745 -0.82458 0 0.565745 -0.82458 0 0.565745 -0.82458 0 0.565745 -0.82458 0 0.988057 -0.154092 0 0.976544 -0.215317 0 0.988057 -0.154092 0 0.995734 -0.0922683 0 0.995734 -0.0922683 0 0.976544 -0.215317 0 0.961242 -0.275706 0 0.961242 -0.275706 0 0.0922684 0.995734 0 0.0922684 0.995734 0 0.0922684 0.995734 0 0.0922684 0.995734 0 0.825414 -0.564527 0 0.825414 -0.564527 0 0.825414 -0.564527 0 0.825414 -0.564527 0 0.977 0.213241 0 0.988382 0.151991 0 0.977 0.213241 0 0.961826 0.273663 0 0.961826 0.273663 0 0.988382 0.151992 0 0.995928 0.0901521 0 0.995928 0.0901521 0 -0.273663 0.961826 0 -0.273663 0.961826 0 -0.273663 0.961826 0 -0.273663 0.961826 0 0.955826 -0.293932 0 0.955826 -0.293932 0 0.955826 -0.293932 0 0.955826 -0.293932 0 0.837798 0.545981 0 0.873563 0.486711 0 0.837798 0.545981 0 0.798017 0.602635 0 0.798017 0.602635 0 0.873563 0.486711 0 0.905142 0.425109 0 0.905142 0.425109 0 -0.602635 0.798017 0 -0.602635 0.798017 0 -0.602635 0.798017 0 -0.602635 0.798017 0 1 0 0 1 0 0 1 0 0 1 0 0 0.589144 0.808028 0 0.648491 0.761222 0 0.589144 0.808028 0 0.526432 0.850217 0 0.526432 0.850217 0 0.648491 0.761222 0 0.704133 0.710068 0 0.704133 0.710068 0 -0.850217 0.526432 0 -0.850217 0.526432 0 -0.850217 0.526432 0 -0.850217 0.526432 0 0.873263 0.487249 0 0.873263 0.487249 0 0.873263 0.487249 0 0.873263 0.487249 0 0.244601 0.969624 0 0.304502 0.952512 0 0.244601 0.969624 0 0.183749 0.982973 0 0.183749 0.982973 0 0.304502 0.952512 0 0.363222 0.931702 0 0.363222 0.931702 0 -0.982973 0.18375 0 -0.982973 0.18375 0 -0.982973 0.18375 0 -0.982973 0.18375 0 0.633288 0.773917 0 0.633288 0.773917 0 0.633288 0.773917 0 0.633288 0.773917 0 -0.122888 0.99242 0 -0.0615609 0.998103 0 -0.122888 0.99242 0 -0.183749 0.982973 0 -0.183749 0.982973 0 -0.0615609 0.998103 0 -9.93384e-08 1 0 -9.93384e-08 1 0 -0.982973 -0.18375 0 -0.982973 -0.18375 0 -0.982973 -0.18375 0 -0.982973 -0.18375 0 0.286392 0.958112 0 0.286392 0.958112 0 0.286392 0.958112 0 0.286392 0.958112 0 0.996584 0.0825794 0 0.996584 -0.0825794 0 0.996584 -0.0825794 0 8.74228e-08 1 0 -0.164595 0.986361 0 8.74228e-08 1 0 0.9694 -0.245485 0 0.9694 -0.245486 0 0.915773 -0.401695 0 0.915773 -0.401695 0 0.837166 -0.546948 0 0.837166 -0.546948 0 0.735724 -0.677282 0 0.735724 -0.677282 0 0.614213 -0.78914 0 0.614213 -0.789141 0 0.475947 -0.879474 0 0.475948 -0.879474 0 0.324699 -0.945817 0 0.3247 -0.945817 0 0.164595 -0.986361 0 0.164595 -0.986361 -0 -1.74846e-07 -1 0 3.01992e-07 -1 0 0.996584 0.0825794 0 0.9694 0.245486 0 0.9694 0.245486 0 0.915773 0.401695 0 0.915773 0.401695 0 0.837167 0.546948 0 0.837167 0.546948 0 0.735724 0.677282 0 0.735724 0.677282 0 0.614213 0.78914 0 0.614213 0.78914 0 0.475947 0.879474 0 0.475947 0.879474 0 0.324699 0.945817 0 0.324699 0.945817 0 0.164595 0.986361 0 0.164595 0.986361 0 -0.3247 0.945817 0 -0.324699 0.945817 0 -0.164595 0.986361 0 -0.735724 0.677282 0 -0.735724 0.677282 0 -0.614213 0.789141 0 -0.475947 0.879474 0 -0.614213 0.78914 0 -0.475947 0.879474 0 -0.915773 0.401695 0 -0.9694 0.245485 0 -0.9694 0.245485 0 -0.837166 0.546948 0 -0.837166 0.546948 0 -0.915773 0.401695 -0 -0.9694 -0.245485 -0 -0.996584 -0.0825794 -0 -0.9694 -0.245485 -0 -0.996584 -0.0825794 0 -0.996584 0.0825792 0 -0.996584 0.0825794 -0 -0.735724 -0.677282 -0 -0.735724 -0.677282 -0 -0.837166 -0.546948 -0 -0.915773 -0.401695 -0 -0.837166 -0.546948 -0 -0.915773 -0.401695 -0 -0.475947 -0.879474 -0 -0.614213 -0.789141 -0 -0.614213 -0.789141 -0 -0.475947 -0.879474 -0 -0.324699 -0.945817 -0 -0.324699 -0.945817 -0 -0.164595 -0.986361 -0 -0.164595 -0.986361 1 0 0 1 0 0 1 0 0 1 0 0 1 0 0 1 0 0 1 0 0 1 0 0 1 0 0 1 0 0 1 0 0 1 0 0 1 0 0 1 0 0 1 0 0 1 0 0 1 0 0 1 0 0 1 0 0 1 0 0 1 0 0 1 0 0 1 0 0 1 0 0 1 0 0 1 0 0 1 0 0 1 0 0 1 0 0 1 0 0 1 0 0 1 0 0 1 0 0 1 0 0 1 0 0 1 0 0 1 0 0 1 0 0 1 0 0 1 0 0 1 0 0 1 0 0 1 0 0 1 0 0 1 0 0 1 0 0 1 0 0 1 0 0 1 0 0 1 0 0 1 0 0 1 0 0 1 0 0 1 0 0 1 0 0 1 0 0 1 0 0 1 0 0 1 0 0 1 0 0 1 0 0 1 0 0 1 0 0 1 0 0 1 0 0 1 0 0 1 0 0 1 0 0 1 0 0 1 0 0 1 0 0 1 0 0 1 0 0 1 0 0 1 0 0 1 0 0 1 0 0 1 0 0 1 0 0 1 0 0 1 0 0 1 0 0 1 0 0 1 0 0 1 0 0 1 0 0 1 0 0 1 0 0 1 0 0 1 0 0 1 0 0 1 0 0 1 0 0 1 0 0 1 0 0 1 0 0 1 0 0 1 0 0 1 0 0 1 0 0 1 0 0 1 0 0 1 0 0 1 0 0 1 0 0 1 0 0 1 0 0 1 0 0 1 0 0 1 0 0 1 0 0 1 0 0 1 0 0 1 0 0 1 0 0 1 0 0 1 0 0 1 0 0 1 0 0 1 0 0 1 0 0 1 0 0 1 0 0 -1 -0 -0 -1 -0 -0 -1 -0 -0 -1 -0 -0 -1 -0 -0 -1 -0 -0 -1 -0 -0 -1 -0 -0 -1 -0 -0 -1 -0 -0 -1 -0 -0 -1 -0 -0 -1 -0 -0 -1 -0 -0 -1 -0 -0 -1 -0 -0 -1 -0 -0 -1 -0 -0 -1 -0 -0 -1 -0 -0 -1 -0 -0 -1 -0 -0 -1 -0 -0 -1 -0 -0 -1 -0 -0 -1 -0 -0 -1 -0 -0 -1 -0 -0 -1 -0 -0 -1 -0 -0 -1 -0 -0 -1 -0 -0 -1 -0 -0 -1 -0 -0 -1 -0 -0 -1 -0 -0 -1 -0 -0 -1 -0 -0 -1 -0 -0 -1 -0 -0 -1 -0 -0 -1 -0 -0 -1 -0 -0 -1 -0 -0 -1 -0 -0 -1 -0 -0 -1 -0 -0 -1 -0 -0 -1 -0 -0 -1 -0 -0 -1 -0 -0 -1 -0 -0 -1 -0 -0 -1 -0 -0 -1 -0 -0 -1 -0 -0 -1 -0 -0 -1 -0 -0 -1 -0 -0 -1 -0 -0 -1 -0 -0 -1 -0 -0 -1 -0 -0 -1 -0 -0 -1 -0 -0 -1 -0 -0 -1 -0 -0 -1 -0 -0 -1 -0 -0 -1 -0 -0 -1 -0 -0 -1 -0 -0 -1 -0 -0 -1 -0 -0 -1 -0 -0 -1 -0 -0 -1 -0 -0 -1 -0 -0 -1 -0 -0 -1 -0 -0 -1 -0 -0 -1 -0 -0 -1 -0 -0 -1 -0 -0 -1 -0 -0 -1 -0 -0 -1 -0 -0 -1 -0 -0 -1 -0 -0 -1 -0 -0 -1 -0 -0 -1 -0 -0 -1 -0 -0 -1 -0 -0 -1 -0 -0 -1 -0 -0 -1 -0 -0 -1 -0 -0 -1 -0 -0 -1 -0 -0 -1 -0 -0 -1 -0 -0 -1 -0 -0 -1 -0 -0 -1 -0 -0 -1 -0 -0 -1 -0 -0 -1 -0 -0 -1 -0 -0 -1 -0 -0 -1 -0 -0 -1 -0 -0 -1 -0 -0 -1 -0 -0 -1 -0 -0 -1 -0 -0 -1 -0 -0 -1 -0 -0 -1 -0 -0 -1 -0 -0 -1 -0 -0 -1 -0 -0 -1 -0 -0</float_array>
          <technique_common>
            <accessor count="594" source="#ID7" stride="3">
              <param name="X" type="float"/>
              <param name="Y" type="float"/>
              <param name="Z" type="float"/>
            </accessor>
          </technique_common>
        </source>
        <vertices id="ID8">
          <input semantic="POSITION" source="#ID4"/>
          <input semantic="NORMAL" source="#ID6"/>
        </vertices>
        <triangles count="492" material="ID9">
          <input offset="0" semantic="VERTEX" source="#ID8"/>
          <p>0 1 2 3 4 0 0 2 3 2 1 5 1 6 5 5 6 7 8 9 10 9 8 11 12 13 14 12 15 13 16 17 18 19 20 16 16 18 19 18 17 21 17 22 21 21 22 23 24 25 26 25 24 27 28 29 30 28 31 29 32 33 34 35 36 32 32 34 35 34 33 37 33 38 37 37 38 39 40 41 42 41 40 43 44 45 46 44 47 45 48 49 50 51 52 48 48 50 51 50 49 53 49 54 53 53 54 55 56 57 58 57 56 59 60 61 62 60 63 61 64 65 66 67 68 64 64 66 67 66 65 69 65 70 69 69 70 71 72 73 74 73 72 75 76 77 78 76 79 77 80 81 82 83 84 80 80 82 83 82 81 85 81 86 85 85 86 87 88 89 90 89 88 91 92 93 94 92 95 93 96 97 98 99 100 96 96 98 99 98 97 101 97 102 101 101 102 103 104 105 106 105 104 107 108 109 110 108 111 109 112 113 114 115 116 112 112 114 115 114 113 117 113 118 117 117 118 119 120 121 122 121 120 123 124 125 126 124 127 125 128 129 130 131 132 128 128 130 131 130 129 133 129 134 133 133 134 135 136 137 138 137 136 139 140 141 142 140 143 141 144 145 146 147 148 144 144 146 147 146 145 149 145 150 149 149 150 151 152 153 154 153 152 155 156 157 158 156 159 157 160 161 162 163 164 160 160 162 163 162 161 165 161 166 165 165 166 167 168 169 170 169 168 171 172 173 174 172 175 173 176 177 178 179 180 176 176 178 179 178 177 181 177 182 181 181 182 183 184 185 186 185 184 187 188 189 190 188 191 189 192 193 194 195 196 192 192 194 195 194 193 197 193 198 197 197 198 199 200 201 202 201 200 203 204 205 206 204 207 205 208 209 210 211 212 208 208 210 211 210 209 213 209 214 213 213 214 215 216 217 218 217 216 219 220 221 222 220 223 221 224 225 226 227 228 224 224 226 227 226 225 229 225 230 229 229 230 231 232 233 234 233 232 235 236 237 238 236 239 237 240 241 242 243 244 240 240 242 243 242 241 245 241 246 245 245 246 247 248 249 250 249 248 251 252 253 254 252 255 253 256 257 258 259 260 256 256 258 259 258 257 261 257 262 261 261 262 263 264 265 266 265 264 267 268 269 270 268 271 269 272 273 274 275 276 277 278 279 273 274 273 279 280 278 281 278 280 279 281 282 283 283 280 281 284 285 282 283 282 285 286 284 287 284 286 285 287 288 289 289 286 287 290 291 288 289 288 291 292 290 293 290 292 291 294 292 293 294 293 295 274 296 272 297 296 298 296 297 272 298 299 300 300 297 298 301 302 299 300 299 302 303 301 304 301 303 302 304 305 306 306 303 304 307 308 305 306 305 308 309 307 310 307 309 308 310 311 312 312 309 310 312 311 277 313 314 315 311 275 277 316 317 318 319 320 321 322 323 324 325 326 327 328 329 330 331 332 333 334 335 336 337 338 339 340 341 342 334 342 341 340 343 344 343 340 342 345 346 344 344 343 345 295 346 347 345 347 346 294 295 347 336 335 338 334 341 335 337 339 330 336 338 337 328 331 329 339 328 330 332 323 333 331 333 329 327 322 324 324 323 332 316 326 325 326 322 327 318 317 320 316 325 317 319 321 313 318 320 319 314 276 315 321 314 313 275 315 276 348 349 350 351 352 353 354 348 350 350 349 355 356 357 358 359 360 361 362 363 358 362 358 357 364 365 366 358 366 365 350 356 358 367 368 365 367 365 364 369 351 370 371 372 373 374 371 373 374 373 365 372 375 373 359 376 360 370 377 369 376 378 360 370 351 379 373 361 360 380 381 382 381 380 383 382 384 380 369 377 385 360 383 380 369 386 387 386 369 388 369 387 389 369 380 388 390 391 392 393 351 353 352 351 394 385 380 369 369 394 351 391 395 396 396 397 391 397 398 391 399 400 401 351 395 391 402 403 404 403 402 405 405 406 403 407 408 409 410 407 409 373 360 411 391 404 403 410 412 407 400 413 414 415 400 414 416 417 418 403 408 407 415 419 400 420 421 422 423 420 422 424 358 365 407 413 400 420 423 425 418 426 427 350 428 429 400 421 420 418 427 430 426 418 431 431 418 420 432 433 434 435 358 436 432 434 437 438 433 418 418 433 432 439 440 441 439 429 442 443 439 444 441 444 439 440 439 432 429 445 446 447 432 439 448 429 449 446 449 429 445 429 439 429 354 350 365 373 450 451 380 452 453 454 403 455 418 432 452 380 456 456 380 385 451 457 360 360 380 451 411 360 457 450 373 458 458 373 411 424 365 459 459 365 450 436 358 460 460 358 424 435 461 350 350 358 435 428 350 461 442 429 462 462 429 428 447 439 463 463 439 442 455 432 464 464 432 447 465 416 418 465 418 455 420 418 417 466 401 420 466 420 417 467 400 399 401 400 420 407 467 468 467 407 400 403 407 453 468 453 407 454 469 403 391 403 470 469 470 403 391 390 351 391 470 392 379 351 390 471 472 473 474 475 476 477 478 479 480 475 481 480 476 475 482 483 484 475 484 483 485 475 474 486 484 487 486 482 484 477 488 489 490 491 492 493 491 490 493 484 491 492 491 494 495 496 497 488 477 498 496 499 497 495 491 496 496 500 499 501 479 502 503 489 488 479 504 502 501 496 479 479 505 504 478 477 506 507 498 477 508 506 477 509 508 477 510 511 512 489 513 514 514 515 489 515 477 489 489 516 513 507 477 479 517 518 512 512 519 517 518 489 512 512 520 519 521 522 523 524 473 525 473 472 525 526 527 528 527 526 529 491 530 496 512 473 524 529 526 531 522 532 533 534 532 522 535 536 537 473 526 528 534 522 538 539 540 541 542 540 539 543 484 475 526 522 533 539 544 542 536 545 546 485 547 548 522 539 541 549 550 536 545 536 550 546 539 536 551 552 536 553 554 475 555 556 557 551 557 556 536 557 551 558 559 560 558 561 547 562 563 558 559 558 563 560 557 558 547 564 565 566 558 557 567 568 547 564 547 568 565 558 547 569 547 485 484 570 491 485 571 572 572 569 485 485 573 571 574 575 479 576 473 577 578 557 536 575 579 479 579 507 479 574 496 580 496 574 479 530 580 496 570 581 491 581 530 491 543 582 484 582 570 484 554 583 475 583 543 475 553 485 584 485 553 475 548 584 485 561 585 547 585 548 547 566 586 558 586 561 558 578 587 557 587 566 557 588 536 535 588 578 536 539 537 536 589 539 521 589 537 539 590 523 522 521 539 522 526 591 590 590 522 526 473 576 526 591 526 576 577 473 592 512 593 473 592 473 593 512 489 510 512 511 593 503 510 489</p>
        </triangles>
      </mesh>
    </geometry>
  </library_geometries>

  <library_visual_scenes>
    <visual_scene id="ID1">
      <node id="ID2">
        <instance_geometry url="#ID3">
          <bind_material>
            <technique_common>
              <instance_material symbol="ID9" target="#ID9"/>
            </technique_common>
          </bind_material>
        </instance_geometry>
      </node>
    </visual_scene>
  </library_visual_scenes>

  <scene>
    <instance_visual_scene url="#ID1"/>
  </scene>

  <library_nodes/>

</COLLADA>
